# xmcd
# 
# Track frame offsets:
#     187
#     8382
#     29470
#     53367
#     73147
#     95527
#     96615
#     113520
#     119935
#     141225
#     164397
#     190947
#     214110
#     235282
# 
# Disc length: 3428
# 
# Revision: 2
# Processed by: cddbd v1.5.2PL0 Copyright (c) Steve Scherf et al.
# Submitted via: fre:ac v1.0.31
# 
DISCID=c50d620e
DTITLE=東京少年 - 原っぱの真ん中で
DYEAR=1989
DGENRE=JPop
TTITLE0=原っぱの真ん中で ~Prologue
TTITLE1=針とパズル
TTITLE2=コギト・エルゴ・スム
TTITLE3=過保護の受難
TTITLE4=ミッシング・ピース
TTITLE5=アクチュアル・ゾーン
TTITLE6=スキップ☆リップ☽ソング
TTITLE7=アンビエント・デイズ
TTITLE8=どっかいっちゃった
TTITLE9=ハイリ・ハイリレホ
TTITLE10=涙色の海へ
TTITLE11=ワンス・アポン・ア・タイム
TTITLE12=原っぱの真ん中で
TTITLE13=上を向いたつむじ
EXTD=1989.6.7
EXTT0=
EXTT1=
EXTT2=
EXTT3=
EXTT4=
EXTT5=
EXTT6=
EXTT7=
EXTT8=
EXTT9=
EXTT10=
EXTT11=
EXTT12=
EXTT13=
PLAYORDER=
